<?xml version="1.0" standalone="no"?>
<!DOCTYPE svg PUBLIC "-//W3C//DTD SVG 20010904//EN"
 "http://www.w3.org/TR/2001/REC-SVG-20010904/DTD/svg10.dtd">
<svg version="1.0" xmlns="http://www.w3.org/2000/svg"
 width="512.000000pt" height="512.000000pt" viewBox="0 0 512.000000 512.000000"
 preserveAspectRatio="xMidYMid meet">
<metadata>
Created by potrace 1.14, written by Peter Selinger 2001-2017
</metadata>
<g transform="translate(0.000000,512.000000) scale(0.100000,-0.100000)"
fill="#000000" stroke="none">
<path d="M4867 5114 c-1 -1 -49 -5 -107 -9 -155 -11 -267 -22 -305 -29 -11 -2
-45 -7 -76 -10 -31 -4 -67 -9 -80 -11 -31 -7 -77 -15 -114 -21 -16 -2 -43 -7
-60 -11 -16 -4 -36 -6 -42 -4 -7 1 -13 -3 -13 -9 0 -6 -4 -9 -8 -6 -4 3 -28 0
-53 -5 -24 -6 -55 -13 -69 -15 -14 -3 -34 -8 -45 -11 -11 -4 -27 -8 -35 -9
-27 -4 -60 -13 -68 -18 -9 -5 -59 -17 -79 -18 -7 -1 -13 -4 -13 -8 0 -4 -6 -7
-12 -8 -15 -1 -53 -10 -53 -12 0 -1 -8 -3 -17 -5 -9 -2 -41 -11 -70 -21 -29
-10 -56 -17 -60 -16 -5 1 -8 -3 -8 -9 0 -5 -3 -8 -7 -6 -5 3 -19 0 -33 -6 -14
-5 -34 -12 -44 -14 -11 -2 -25 -8 -33 -14 -7 -6 -13 -8 -13 -4 0 4 -7 2 -15
-5 -8 -7 -15 -9 -15 -5 0 4 -7 1 -16 -6 -9 -7 -21 -14 -28 -15 -18 -3 -156
-60 -242 -99 -106 -50 -128 -59 -136 -57 -5 1 -8 -2 -8 -8 0 -5 -9 -10 -20
-10 -11 0 -20 -4 -20 -9 0 -5 -17 -15 -37 -22 -21 -6 -40 -15 -43 -19 -3 -4
-25 -17 -50 -28 -47 -22 -141 -73 -150 -82 -3 -3 -25 -16 -50 -29 -44 -24
-134 -81 -157 -101 -7 -5 -15 -10 -18 -10 -12 0 -175 -113 -175 -121 0 -5 -6
-9 -14 -9 -7 0 -25 -11 -40 -25 -14 -13 -26 -22 -26 -19 0 3 -7 -1 -15 -8 -33
-30 -45 -38 -45 -32 0 4 -8 -2 -17 -12 -10 -11 -38 -35 -63 -54 -25 -19 -46
-38 -48 -42 -2 -5 -9 -8 -15 -8 -7 0 -21 -11 -31 -25 -10 -14 -22 -25 -27 -25
-4 0 -19 -10 -32 -22 -13 -13 -57 -53 -98 -90 -140 -125 -335 -324 -439 -448
-34 -41 -70 -82 -79 -90 -9 -8 -36 -42 -60 -75 -25 -33 -48 -62 -51 -65 -13
-10 -196 -266 -239 -335 -24 -38 -47 -72 -51 -75 -4 -3 -10 -15 -14 -27 -4
-13 -12 -23 -17 -23 -6 0 -8 -4 -4 -9 3 -5 -4 -16 -15 -24 -11 -7 -17 -17 -13
-20 3 -4 -1 -15 -9 -24 -9 -10 -28 -43 -44 -73 -16 -30 -34 -61 -41 -68 -7 -8
-11 -18 -8 -23 4 -5 2 -9 -3 -9 -10 0 -55 -91 -50 -103 2 -5 -5 -13 -15 -18
-9 -6 -15 -14 -12 -20 4 -5 1 -9 -4 -9 -6 0 -10 -3 -9 -7 1 -7 -21 -58 -93
-209 -16 -34 -29 -66 -29 -71 0 -4 -9 -25 -20 -46 -11 -20 -18 -37 -15 -37 3
0 -2 -15 -12 -32 -9 -18 -16 -37 -15 -42 2 -4 -1 -13 -6 -20 -8 -9 -45 -110
-47 -126 0 -3 -4 -11 -8 -18 -5 -7 -11 -24 -13 -39 -3 -14 -10 -36 -17 -47 -6
-12 -10 -24 -9 -28 1 -3 -8 -33 -19 -65 -11 -32 -19 -59 -19 -61 1 -3 -30
-113 -37 -132 -6 -16 -14 -63 -17 -95 0 -11 -5 -23 -9 -26 -4 -3 -9 -21 -11
-41 -2 -19 -6 -39 -9 -44 -3 -5 -8 -28 -11 -50 -4 -23 -10 -54 -15 -70 -4 -16
-7 -41 -7 -56 1 -16 -1 -28 -5 -28 -3 0 -6 -6 -6 -12 0 -7 -10 -77 -22 -154
-11 -78 -23 -170 -26 -205 -14 -175 -16 -215 -20 -357 l-5 -152 1282 2 1282 3
2 40 c11 209 24 346 39 395 2 8 7 31 10 50 3 19 8 42 10 50 2 8 6 26 9 40 13
73 50 200 58 200 5 0 6 5 3 10 -4 6 -1 18 7 27 7 9 12 18 11 20 -2 1 -3 4 -2
6 0 1 2 9 4 17 5 22 84 209 108 255 12 22 20 43 19 47 -1 5 3 8 9 8 6 0 9 7 5
15 -3 8 -1 15 5 15 5 0 13 8 16 18 21 56 198 322 214 322 6 0 8 4 5 8 -3 5 8
23 24 41 17 18 30 35 30 39 0 4 16 22 35 39 19 18 35 35 35 37 0 6 172 178
216 216 16 14 56 46 89 72 33 26 68 54 78 63 10 9 35 26 55 38 20 12 39 24 42
28 18 24 388 225 397 215 3 -2 13 3 23 12 11 8 27 17 37 18 9 2 26 7 38 12 53
26 212 79 262 88 41 8 46 10 68 17 20 6 36 10 130 27 28 5 61 11 75 14 83 15
149 21 303 27 l88 3 -3 1281 -3 1280 -123 0 c-68 0 -124 -1 -125 -1z"/>
</g>
</svg>
